<?xml version="1.0" encoding="UTF-8"?>
<!DOCTYPE svg PUBLIC "-//W3C//DTD SVG 1.1//EN" "http://www.w3.org/Graphics/SVG/1.1/DTD/svg11.dtd">
<!-- Creator: CorelDRAW -->
<svg xmlns="http://www.w3.org/2000/svg" xml:space="preserve" width="215.9mm" height="355.6mm" version="1.1" style="shape-rendering:geometricPrecision; text-rendering:geometricPrecision; image-rendering:optimizeQuality; fill-rule:evenodd; clip-rule:evenodd"
viewBox="0 0 21590 35560"
 xmlns:xlink="http://www.w3.org/1999/xlink"
 xmlns:xodm="http://www.corel.com/coreldraw/odm/2003">
 <defs>
  <style type="text/css">
   <![CDATA[
    .fil0 {fill:#00BFAD}
    .fil2 {fill:#00BFAD}
    .fil1 {fill:#72C7D2}
   ]]>
  </style>
 </defs>
 <g id="Layer_x0020_1">
  <metadata id="CorelCorpID_0Corel-Layer"/>
  <g id="_536572832">
   <path class="fil0" d="M8043.33 18889.13l0 -1066.8c0,-41.84 34.35,-76.2 76.2,-76.2l931.33 0c41.84,0 76.2,34.36 76.2,76.2l0 1066.8c0,41.85 -34.36,76.2 -76.2,76.2l-931.33 0c-41.85,0 -76.2,-34.35 -76.2,-76.2zm101.6 -1278.46c-85.49,0 -115.83,7.11 -166.19,45.47 -32.31,24.61 -70.88,87.1 -70.88,140.79l0 1117.6c0,93.14 93.12,186.27 186.27,186.27l423.33 0 0 541.86c-101.75,0 -203.2,-20.81 -203.2,67.73 0,40.96 26.78,67.74 67.73,67.74l406.4 0c90.88,0 90.88,-135.47 0,-135.47l-135.47 0 0 -541.86 338.67 0 0 609.59c0,90.89 135.47,90.89 135.47,0l0 -609.59 203.2 0 0 609.59c0,40.96 26.77,67.74 67.73,67.74 95.77,0 67.73,-149.69 67.73,-304.8 0,-124.18 0,-248.36 0,-372.53 85.22,-7.09 115.88,-136.86 -33.51,-135.83 -59.39,0.41 -118.75,0.36 -178.15,0.36 21.66,-92.97 8.46,-997.04 8.46,-1168.4 0,-78.15 -57.6,-138.7 -112.64,-166.75 -61.26,-31.23 -172.52,-19.51 -259.89,-19.51 -186.27,0 -372.53,0 -558.8,0 59.19,-88.39 232.91,-135.47 355.6,-135.47l203.2 0c244.73,0 410.01,131.59 475.38,312.02 59.11,163.17 32.91,530.45 32.62,754.78 -0.1,69.66 -12.82,132.72 45.49,149.24 56.61,16.05 138.68,-10.93 183.53,11.21 51.97,25.65 42.01,78.78 41.91,152.81l-0.03 787.43c-0.32,73.9 -6.39,135.44 67.76,135.44 40.96,0 67.74,-26.78 67.74,-67.74l0 -965.19c0,-93.14 -93.13,-186.27 -186.27,-186.27l-84.66 0 0 -651.93c0,-149.48 -96.29,-330.31 -212.76,-422.24 -232.99,-183.9 -418.83,-145.02 -710.11,-145.02 -189.95,0 -370.17,128.32 -465.66,270.93z"/>
   <path class="fil1" d="M10075.32 17813.87l0 203.2 -135.47 0 0 -304.8c0,-302.02 205.99,-508 508,-508l203.2 0c303.05,0 508,205.22 508,508l0 304.8 -135.47 0c0,-144.35 27.08,-270.94 -67.73,-270.94 -94.81,0 -67.73,126.59 -67.73,270.94l-677.33 0c0,-144.35 27.07,-270.94 -67.74,-270.94 -40.95,0 -67.73,26.78 -67.73,67.74zm1185.33 -338.67c86.09,0 169.33,-9.84 169.33,76.2l0 465.67 -135.46 0 0 -381c0,-51.78 -17.37,-126.48 -33.87,-160.87zm-1456.26 160.87l0 381c-55.68,0 -135.47,-12.8 -135.47,67.73 0,40.95 26.78,67.73 67.73,67.73l1964.27 0 0 135.47 -1964.27 0c-90.88,0 -90.88,135.47 0,135.47l1828.8 0 0 872.06c0,78.09 -67.36,76.56 -143.91,76.23l-1320.82 -0.03c-80.39,-0.05 -160.87,-14.37 -160.87,67.73 0,40.96 26.78,67.74 67.74,67.74l1507.06 0c93.14,0 186.27,-93.13 186.27,-186.27l0 -897.46c164.86,0 135.46,7.56 135.46,-338.67 0,-94.81 -126.59,-67.73 -270.93,-67.73l0 -491.07c0,-78.16 -57.6,-138.7 -112.64,-166.76 -61.26,-31.22 -172.53,-19.5 -259.89,-19.5l-78.05 -99.76c-17.01,-15.92 -32.16,-25.69 -51.58,-41.55 -204.48,-167.01 -413.83,-129.63 -691.64,-129.63 -114.12,0 -227.85,54.49 -311.75,111.59 -19.67,13.38 -20.31,15.26 -38.07,29.66 -121.71,98.75 -217.44,264 -217.44,426.02z"/>
   <g>
    <path class="fil2" d="M12312.45 16186.34c42.8,-1.78 86.12,-3.54 126.81,0.62 79.77,8.16 142.16,49.04 142.16,136.78l0 406.4c0,87.74 -62.39,128.62 -142.16,136.78 -40.69,4.16 -84.01,2.4 -126.81,0.62 1.77,42.8 3.54,86.12 -0.63,126.81 -8.16,79.78 -49.04,142.16 -136.78,142.16l-406.39 0c-87.74,0 -128.62,-62.38 -136.78,-142.16 -4.17,-40.69 -2.4,-84.01 -0.63,-126.81 -42.8,1.78 -86.12,3.54 -126.81,-0.62 -79.77,-8.16 -142.16,-49.04 -142.16,-136.78l0 -406.4c0,-87.74 62.39,-128.62 142.16,-136.78 41.31,-4.22 85.33,-2.34 128.77,-0.54l0 -133.61c0,-78.36 57.09,-135.45 135.45,-135.45l406.39 0c87.74,0 128.62,62.39 136.78,142.16 4.17,40.69 2.4,84.02 0.63,126.82zm-679.29 273.74l0 133.71c36.03,-0.72 72.13,-1.47 107.72,-0.49 44.89,1.23 91.12,6.56 124.58,40.02 33.46,33.46 38.79,79.69 40.02,124.58 0.98,35.6 0.23,71.7 -0.49,107.73l133.71 0c-0.72,-36.03 -1.47,-72.13 -0.49,-107.73 1.23,-44.89 6.56,-91.12 40.02,-124.58 33.46,-33.46 79.69,-38.79 124.58,-40.02 35.59,-0.98 71.69,-0.23 107.72,0.49l0 -133.71c-36.03,0.72 -72.13,1.47 -107.72,0.49 -44.89,-1.23 -91.12,-6.56 -124.58,-40.02 -33.46,-33.46 -38.79,-79.69 -40.02,-124.58 -0.98,-35.59 -0.23,-71.69 0.49,-107.72l-133.71 0c0.72,36.03 1.47,72.13 0.49,107.72 -1.23,44.89 -6.56,91.12 -40.02,124.58 -33.46,33.46 -79.69,38.79 -124.58,40.02 -35.59,0.98 -71.69,0.23 -107.72,-0.49z"/>
   </g>
   <path class="fil1" d="M11565.45 16391.47c311.11,0 270.93,40.18 270.93,-270.93l270.93 0c0,311.11 -40.18,270.93 270.93,270.93l0 270.93c-311.11,0 -270.93,-40.18 -270.93,270.94l-270.93 0c0,-311.12 40.18,-270.94 -270.93,-270.94l0 -270.93zm135.46 -338.66l0 203.2c-144.34,0 -270.93,-27.08 -270.93,67.73l0 406.4c0,94.81 126.59,67.73 270.93,67.73 0,144.34 -27.07,270.93 67.74,270.93l406.39 0c94.81,0 67.74,-126.59 67.74,-270.93 144.34,0 270.93,27.08 270.93,-67.73l0 -406.4c0,-94.81 -126.59,-67.73 -270.93,-67.73 0,-144.35 27.07,-270.94 -67.74,-270.94l-406.39 0c-40.96,0 -67.74,26.78 -67.74,67.74z"/>
   <path class="fil1" d="M10346.25 16577.74c0,-94.78 -10.81,-186.63 56.75,-256.52 129.54,-133.99 349.65,-46.6 349.65,154.92 0,96.01 10.2,183.64 -56.94,256.32 -118.69,128.49 -349.46,55.95 -349.46,-154.72zm-135.46 -143.94l0 186.27c0,156.19 157.07,313.27 313.26,313.27l50.8 0c156.19,0 313.27,-157.08 313.27,-313.27l0 -186.27c0,-156.19 -157.08,-313.26 -313.27,-313.26l-50.8 0c-156.19,0 -313.26,157.07 -313.26,313.26z"/>
   <path class="fil2" d="M8585.19 16848.67c0,-94.78 -10.81,-186.63 56.75,-256.51 129.54,-133.99 349.65,-46.61 349.65,154.91 0,96.01 10.2,183.64 -56.94,256.33 -118.69,128.48 -349.46,55.94 -349.46,-154.73zm-135.46 -143.93l0 186.26c0,156.19 157.07,313.27 313.26,313.27l50.8 0c156.19,0 313.27,-157.08 313.27,-313.27l0 -186.26c0,-156.19 -157.08,-313.27 -313.27,-313.27l-50.8 0c-156.19,0 -313.26,157.08 -313.26,313.27z"/>
  </g>
 </g>
</svg>
